<?xml version="1.0" standalone="no"?>
<!DOCTYPE svg PUBLIC "-//W3C//DTD SVG 20010904//EN"
 "http://www.w3.org/TR/2001/REC-SVG-20010904/DTD/svg10.dtd">
<svg version="1.0" xmlns="http://www.w3.org/2000/svg"
 width="503.000000pt" height="358.000000pt" viewBox="0 0 503.000000 358.000000"
 preserveAspectRatio="xMidYMid meet">

<g transform="translate(0.000000,358.000000) scale(0.100000,-0.100000)"
fill="#000000" stroke="none">
<path d="M2176 2249 c-104 -42 -167 -110 -207 -224 -28 -80 -23 -198 11 -269
47 -98 161 -175 292 -196 59 -9 73 -8 120 10 84 32 165 96 146 115 -4 4 -32
-2 -63 -14 -106 -40 -229 -23 -311 43 -128 102 -149 334 -38 435 31 30 54 41
89 47 71 10 143 -2 209 -36 32 -16 62 -27 67 -24 18 11 40 65 34 84 -16 49
-251 69 -349 29z"/>
<path d="M2789 2242 c-74 -39 -114 -96 -114 -166 0 -82 19 -102 229 -239 99
-65 121 -92 112 -141 -17 -90 -148 -105 -268 -31 -31 19 -59 35 -62 35 -3 0
-11 -18 -17 -40 -15 -51 -4 -65 70 -87 136 -40 264 -5 329 91 24 36 32 59 32
93 0 83 -32 119 -199 223 -115 72 -141 98 -141 144 1 101 125 116 253 32 l27
-18 15 36 c21 51 20 55 -27 76 -68 31 -172 27 -239 -8z"/>
<path d="M3200 2245 c0 -8 6 -15 14 -15 8 0 28 -11 43 -24 l28 -24 0 -265 0
-265 -24 -26 c-14 -14 -33 -26 -43 -26 -10 0 -18 -7 -18 -15 0 -13 24 -15 155
-15 125 0 155 3 155 14 0 7 -14 16 -32 20 -18 3 -42 16 -55 28 -21 19 -23 30
-23 112 l0 91 98 0 c190 0 281 71 282 219 0 85 -31 135 -107 173 -57 28 -60
28 -265 30 -179 3 -208 1 -208 -12z m388 -62 c55 -41 67 -69 67 -153 0 -73 -2
-81 -29 -109 -34 -36 -115 -56 -182 -46 l-44 6 0 148 c0 128 2 150 18 164 34
30 123 25 170 -10z"/>
<path d="M1418 2120 c-53 -16 -97 -51 -117 -94 -36 -74 -25 -142 37 -219 19
-24 34 -56 38 -83 l6 -44 44 0 44 0 0 73 0 73 85 42 c83 41 85 43 85 77 0 112
-119 206 -222 175z"/>
<path d="M1562 1845 l-72 -34 0 -75 c0 -107 18 -144 92 -197 l61 -42 36 19
c19 10 55 37 78 60 l43 41 0 96 0 97 -70 35 c-38 19 -75 35 -83 35 -7 0 -45
-16 -85 -35z m114 -164 l-46 -46 -26 27 c-33 32 -23 60 10 29 l22 -21 34 35
c18 19 37 32 43 28 5 -3 -12 -26 -37 -52z"/>
<path d="M1390 1640 c0 -17 7 -20 44 -20 39 0 44 2 39 20 -4 16 -14 20 -44 20
-32 0 -39 -3 -39 -20z"/>
<path d="M1390 1581 c0 -23 19 -31 76 -31 48 0 49 2 34 31 -15 28 -110 28
-110 0z"/>
<path d="M2752 1380 c0 -19 2 -27 5 -17 2 9 2 25 0 35 -3 9 -5 1 -5 -18z"/>
<path d="M2841 1400 c0 -8 4 -24 9 -35 5 -13 9 -14 9 -5 0 8 -4 24 -9 35 -5
13 -9 14 -9 5z"/>
<path d="M2922 1380 c0 -19 2 -27 5 -17 2 9 2 25 0 35 -3 9 -5 1 -5 -18z"/>
<path d="M3070 1379 c0 -16 4 -28 9 -25 8 5 3 56 -5 56 -2 0 -4 -14 -4 -31z"/>
<path d="M3416 1386 c-4 -16 -5 -31 -1 -34 3 -3 5 1 5 9 0 11 2 11 10 -1 9
-13 10 -13 9 0 0 8 -4 24 -8 35 -7 17 -9 16 -15 -9z"/>
<path d="M3522 1380 c0 -19 2 -27 5 -17 2 9 2 25 0 35 -3 9 -5 1 -5 -18z"/>
<path d="M3598 1385 c-3 -14 -1 -25 3 -25 5 0 9 11 9 25 0 14 -2 25 -4 25 -2
0 -6 -11 -8 -25z"/>
<path d="M3750 1396 c0 -8 4 -17 9 -20 5 -4 7 3 4 14 -6 23 -13 26 -13 6z"/>
<path d="M2190 1374 c0 -8 5 -12 10 -9 6 4 8 11 5 16 -9 14 -15 11 -15 -7z"/>
<path d="M3247 1369 c4 -13 8 -18 11 -10 2 7 -1 18 -6 23 -8 8 -9 4 -5 -13z"/>
<path d="M3155 1369 c-4 -6 -4 -13 -1 -16 3 -4 6 -1 6 6 0 7 5 9 10 6 6 -3 10
-1 10 4 0 14 -17 14 -25 0z"/>
<path d="M2030 1360 c0 -5 5 -10 10 -10 6 0 10 5 10 10 0 6 -4 10 -10 10 -5 0
-10 -4 -10 -10z"/>
<path d="M2670 1360 c0 -5 5 -10 10 -10 6 0 10 5 10 10 0 6 -4 10 -10 10 -5 0
-10 -4 -10 -10z"/>
</g>
</svg>
