<?xml version="1.0" standalone="no"?>
<!DOCTYPE svg PUBLIC "-//W3C//DTD SVG 20010904//EN"
 "http://www.w3.org/TR/2001/REC-SVG-20010904/DTD/svg10.dtd">
<svg version="1.0" xmlns="http://www.w3.org/2000/svg"
 width="881.000000pt" height="592.000000pt" viewBox="0 0 881.000000 592.000000"
 preserveAspectRatio="xMidYMid meet">

<g transform="translate(0.000000,592.000000) scale(0.100000,-0.100000)"
fill="#000000" stroke="none">
<path d="M3200 3816 c-90 -24 -163 -87 -204 -175 -21 -45 -21 -57 -21 -666 0
-612 0 -621 21 -666 31 -67 87 -124 152 -156 l57 -28 339 -3 c219 -2 356 1
390 8 97 20 190 103 226 200 7 21 14 105 17 208 l6 172 -197 0 -196 0 0 -100
0 -100 -215 0 -215 0 0 465 0 465 215 0 215 0 0 -100 0 -100 196 0 197 0 -6
173 c-3 102 -10 186 -17 207 -35 94 -128 178 -220 199 -66 15 -683 13 -740 -3z"/>
<path d="M4767 3819 c-90 -21 -169 -87 -211 -178 -19 -42 -21 -66 -24 -301 -2
-166 0 -276 8 -315 14 -75 56 -142 114 -184 79 -56 107 -61 342 -61 l214 0 0
-135 0 -135 -340 0 -340 0 0 -196 0 -195 423 3 c413 3 423 3 467 25 72 36 116
79 149 145 l31 61 0 291 c0 286 -1 292 -24 343 -30 64 -87 122 -152 154 -47
23 -59 24 -276 27 l-228 4 0 134 0 134 340 0 340 0 0 195 0 195 -397 -1 c-219
-1 -415 -5 -436 -10z"/>
<path d="M5960 2975 l0 -855 195 0 195 0 0 229 0 230 293 3 c282 3 294 4 344
27 65 29 134 101 159 166 17 46 19 79 19 425 0 336 -2 380 -18 427 -24 69 -85
136 -155 170 l-57 28 -487 3 -488 3 0 -856z m820 230 l0 -235 -215 0 -215 0 0
235 0 235 215 0 215 0 0 -235z"/>
<path d="M1870 3582 c-73 -28 -104 -48 -149 -97 -68 -74 -95 -143 -96 -245 0
-72 4 -94 27 -144 16 -32 51 -84 79 -117 60 -69 93 -153 86 -216 l-5 -43 99 0
99 0 0 141 0 140 164 78 c130 63 164 83 169 102 18 66 -4 179 -47 248 -33 52
-110 120 -164 144 -64 28 -199 33 -262 9z"/>
<path d="M2198 3054 l-148 -74 0 -173 c0 -160 2 -175 24 -222 28 -60 52 -83
179 -170 115 -79 95 -81 247 27 87 62 111 85 135 129 30 53 30 56 33 232 l4
178 -157 74 c-86 41 -159 75 -163 74 -4 0 -73 -34 -154 -75z m282 -247 c0 -8
-34 -47 -76 -87 l-75 -73 -49 48 c-45 44 -54 65 -30 65 6 0 24 -16 42 -35 l33
-36 65 66 c63 63 90 79 90 52z"/>
<path d="M1830 2640 l0 -40 99 0 99 0 -10 40 -10 40 -89 0 -89 0 0 -40z"/>
<path d="M1834 2528 c11 -56 17 -58 152 -58 l124 0 -33 44 -32 45 -109 0 -108
1 6 -32z"/>
</g>
</svg>
